# xmcd
# 
# Track frame offsets:
#     150
#     17495
#     47131
#     71163
#     91218
#     113909
#     139796
#     159161
#     188370
# 
# Disc length: 2851
# 
# Revision: 1
# Processed by: cddbd v1.5.2PL0 Copyright (c) Steve Scherf et al.
# Submitted via: fre:ac v1.0.31
# 
DISCID=6a0b2109
DTITLE=Gene Clark - No Other Disc 2
DYEAR=2019
DGENRE=Country
TTITLE0=From A Silver Phial (Version 4)
TTITLE1=Silver Raven (Version 2)
TTITLE2=Some Misunderstanding (Version 3)
TTITLE3=Life's Greatest Fool (Version 2)
TTITLE4=Train Leaves Here This Morning (Version 2)
TTITLE5=Lady Of The North (Version 2)
TTITLE6=The True One (Version 2)
TTITLE7=Strength Of Strings (Version 2)
TTITLE8=No Other (Version 2)
EXTD=
EXTT0=
EXTT1=
EXTT2=
EXTT3=
EXTT4=
EXTT5=
EXTT6=
EXTT7=
EXTT8=
PLAYORDER=
